<mxfile host="app.diagrams.net" modified="2020-12-03T06:28:22.495Z" agent="5.0 (Macintosh; Intel Mac OS X 10_15_7) AppleWebKit/605.1.15 (KHTML, like Gecko) Version/14.0 Safari/605.1.15" etag="Rre0-mlpAlJPY2Eohbax" version="13.10.6" type="github">
  <diagram name="Page-1" id="74e2e168-ea6b-b213-b513-2b3c1d86103e">
    <mxGraphModel dx="1351" dy="946" grid="0" gridSize="11" guides="1" tooltips="1" connect="1" arrows="1" fold="1" page="1" pageScale="1" pageWidth="1100" pageHeight="850" background="#ffffff" math="0" shadow="0">
      <root>
        <mxCell id="0" />
        <mxCell id="1" parent="0" />
        <mxCell id="Cbq1dcXYgktHrHffWFOS-3" value="" style="edgeStyle=orthogonalEdgeStyle;rounded=0;orthogonalLoop=1;jettySize=auto;html=1;fontSize=29;" edge="1" parent="1" source="Cbq1dcXYgktHrHffWFOS-1" target="Cbq1dcXYgktHrHffWFOS-2">
          <mxGeometry relative="1" as="geometry" />
        </mxCell>
        <mxCell id="Cbq1dcXYgktHrHffWFOS-1" value="中台预警任务" style="rounded=0;whiteSpace=wrap;html=1;fontSize=29;" vertex="1" parent="1">
          <mxGeometry x="82" y="35" width="226" height="60" as="geometry" />
        </mxCell>
        <mxCell id="Cbq1dcXYgktHrHffWFOS-2" value="预警结果集" style="shape=cylinder;whiteSpace=wrap;html=1;boundedLbl=1;backgroundOutline=1;rounded=0;fontSize=17;" vertex="1" parent="1">
          <mxGeometry x="165" y="165" width="60" height="80" as="geometry" />
        </mxCell>
      </root>
    </mxGraphModel>
  </diagram>
</mxfile>
